<svg xmlns="http://www.w3.org/2000/svg" xmlns:xlink="http://www.w3.org/1999/xlink" viewBox="0 0 550 385"><defs><style>.cls-1{isolation:isolate;}.cls-2{fill:#ede9e2;}.cls-3{mix-blend-mode:multiply;fill:url(#radial-gradient);}.cls-13,.cls-23,.cls-4{fill:#e05644;}.cls-5{fill:#e89629;}.cls-17,.cls-6{fill:#eb6498;}.cls-7{fill:#32868d;}.cls-18,.cls-8{fill:#efbf23;}.cls-13,.cls-15,.cls-17,.cls-21,.cls-22,.cls-8{opacity:0.8;}.cls-9{fill:#f09526;}.cls-10,.cls-19,.cls-21{fill:#42b2bc;}.cls-11,.cls-15,.cls-24{fill:#6a5a50;}.cls-12{fill:#68c1c9;}.cls-14,.cls-16{fill:#f5efe3;}.cls-16{fill-rule:evenodd;}.cls-18,.cls-19,.cls-20,.cls-23,.cls-24{opacity:0.9;}</style><radialGradient id="radial-gradient" cx="733.15" cy="2474.91" r="54.67" gradientTransform="matrix(-1.38, 0, 0, 0.14, 1215.62, 2.94)" gradientUnits="userSpaceOnUse"><stop offset="0" stop-color="#dedbdc"/><stop offset="0.06" stop-color="#e1dedf"/><stop offset="0.58" stop-color="#f7f6f6"/><stop offset="0.91" stop-color="#fff"/></radialGradient></defs><title>socialbirdmessage</title><g class="cls-1"><g id="background"><rect id="color" class="cls-2" width="550" height="385"/></g><g id="twitter_bird_message" data-name="twitter bird message"><g id="bottom_shadow" data-name="bottom shadow"><path id="color-2" data-name="color" class="cls-3" d="M130.7,349.68c0,4.23,33.71,7.66,75.3,7.66s75.29-3.43,75.29-7.66S247.58,342,206,342,130.7,345.45,130.7,349.68Z"/></g><g id="twitter_bird" data-name="twitter bird"><path class="cls-4" d="M143.77,313.3s.08,0,0,.25l-28.71,9-1.76-15.33Z"/><path class="cls-5" d="M143.85,313.65s.05,0,.15.16l-10.22,25.07-12.89-9.52Z"/><polyline class="cls-6" points="143.81 312.96 113.21 281.51 110 298.19 143.59 313.29"/><path class="cls-7" d="M166,271.68s3.17,10.23,16.29,12.79c7.17,1.4,13.88-5.23,18.2-6.08a14.79,14.79,0,0,1,17.34,11.68c0,.07,0,.13,0,.19a14.76,14.76,0,0,1-11.69,17.15C169.33,314.6,166,271.68,166,271.68Z"/><path class="cls-8" d="M242.94,244.15A11.36,11.36,0,0,0,240.1,239c.54-.83.9-1.43,1-1.35l7.68-12.95-1.54,14.8,9.78,6.23-12.19-.66.06.2A11.39,11.39,0,0,0,242.94,244.15Z"/><path class="cls-9" d="M217.09,333l-6.82,13.92L206.34,350l1,1.38,4.06-3.13,1.79,3.63,1.53-.76-2.48-5.1,7.1-14.54-1.79,1.21Z"/><path class="cls-9" d="M206.43,338.29l-2.86,5.85-5.2,4,1,1.39,4.09-3.16,1.75,3.64,1.55-.74-2-4.21,3.78-7.73-1.7.78Z"/><path class="cls-10" d="M244.58,244.48l-3.73-7.42c-.23-.35-.45-.71-.69-1.05a34,34,0,0,0-55.11,39.67,33.33,33.33,0,0,0,7.85,7.83s-25.74,31.62-49.69,29.25l2,5.52c.08.12.16.23.23.35l.19.27.49.71a52.45,52.45,0,0,0,60.3,18.68l.42-.15,1.7-.78c2.3-1.08,6.36-3,8.54-4.36l.5-.32,1.79-1.21.52-.35a52.51,52.51,0,0,0,19.77-54.77A34,34,0,0,0,244.58,244.48Z"/><path class="cls-11" d="M218.09,245.22a8.7,8.7,0,0,0,3-10.38,8.9,8.9,0,0,1,1.36,1.5,8.7,8.7,0,0,1-14.13,10.16,9.2,9.2,0,0,1-1-1.76A8.71,8.71,0,0,0,218.09,245.22Z"/><path class="cls-12" d="M161.56,277.38s4.51,13.54,22,16.58c9.57,1.66,18.32-7.34,24.05-8.58A19.67,19.67,0,0,1,231,300.44a2.28,2.28,0,0,1,0,.26A19.64,19.64,0,0,1,216,323.83C167.14,334.41,161.56,277.38,161.56,277.38Z"/></g><g id="icons"><path class="cls-13" d="M335.63,43a23.35,23.35,0,1,1-23.36,23.35A23.36,23.36,0,0,1,335.63,43Z"/><path class="cls-14" d="M331.6,69.4a1.37,1.37,0,0,0,1.93,0l4.83-4.83a1.36,1.36,0,0,0-1.93-1.93l-4.83,4.83A1.35,1.35,0,0,0,331.6,69.4Z"/><path class="cls-14" d="M346.52,54.48a5.62,5.62,0,0,0-7.95,0L335,58A5.61,5.61,0,0,0,334,64.46l1.78-1.78a3.37,3.37,0,0,1,.9-3l3.55-3.54a3.34,3.34,0,0,1,4.72,4.72l-3.55,3.54a3.32,3.32,0,0,1-3,.91L336.53,67A5.63,5.63,0,0,0,343,66l3.54-3.55A5.62,5.62,0,0,0,346.52,54.48Z"/><path class="cls-14" d="M334.22,69.36a3.35,3.35,0,0,1-.91,3L329.77,76a3.34,3.34,0,1,1-4.72-4.72l3.54-3.55a3.37,3.37,0,0,1,3.05-.9L333.42,65A5.61,5.61,0,0,0,327,66.07l-3.54,3.55a5.61,5.61,0,1,0,7.94,7.94L334.92,74A5.6,5.6,0,0,0,336,67.58Z"/><path class="cls-13" d="M380.08,81.19a20.65,20.65,0,1,0,20.64-20.65A20.65,20.65,0,0,0,380.08,81.19Z"/><path class="cls-14" d="M409.69,72.62l-.15.15a.09.09,0,0,0,0,0Z"/><path class="cls-14" d="M401.82,81.59a1.38,1.38,0,0,1-1.68,0L391,74.12v10a2.22,2.22,0,0,0,0,.37V89.6c0,.87.6,1.58,1.19,1.58a1,1,0,0,0,.59-.2c.31-.31,3.89-3.69,5.11-4.91h10.88a2,2,0,0,0,2-2V74.33Z"/><path class="cls-14" d="M401.68,78.72c.34-.34,5.11-4.28,7.68-6.39a2,2,0,0,0-.6-.11H392.93a1.83,1.83,0,0,0-.4,0c2.55,2.09,7.4,6.09,7.76,6.45A1,1,0,0,0,401.68,78.72Z"/><path id="color-3" data-name="color" class="cls-15" d="M276.14,80.37A24.58,24.58,0,1,1,300.72,105,24.57,24.57,0,0,1,276.14,80.37Z"/><g id="Followers_icon" data-name="Followers icon"><path class="cls-16" d="M311.74,86.65a29.61,29.61,0,0,1-4.55-1.22c-.61-.3-.91-.61-1.21,0a6.25,6.25,0,0,1-4.85,2.44l-.06,0a6.12,6.12,0,0,1-4.58-2.41c-.3-.61-.6-.3-1.2,0a30.41,30.41,0,0,1-4.5,1.21c-1.5.3-4.21.91-4.21,4.24a3.68,3.68,0,0,0,.91,2.72h27.58a3.76,3.76,0,0,0,.91-2.74C316,87.56,313.25,87,311.74,86.65Z"/><path class="cls-16" d="M294.82,78.74c.3.61.6,0,.91.61a26,26,0,0,0,2.7,4.56,4,4,0,0,0,2.7,1.49v0h.31v0a4,4,0,0,0,2.71-1.49,26.37,26.37,0,0,0,2.73-4.56c.3-.61.6,0,.91-.61s.91-.92.91-1.52.9-1.22.6-2.13a4.24,4.24,0,0,0-.91-1.53,1.33,1.33,0,0,1-.3-.91,8.91,8.91,0,0,0-1.82-4.56A6.25,6.25,0,0,0,301.51,66h-.45a6.17,6.17,0,0,0-4.73,2.12,8.88,8.88,0,0,0-1.81,4.56,1.33,1.33,0,0,1-.3.91,4.3,4.3,0,0,0-.9,1.53c-.3.91.6,1.52.6,2.13S294.52,78.13,294.82,78.74Z"/></g><polygon class="cls-16" points="292.54 81.6 292.54 79.84 289.02 79.84 289.02 76.33 287.26 76.33 287.26 79.84 283.75 79.84 283.75 81.6 287.26 81.6 287.26 85.12 289.02 85.12 289.02 81.6 292.54 81.6"/><path class="cls-17" d="M302.43,108.47a22.13,22.13,0,1,1-22.12-22.12A22.13,22.13,0,0,1,302.43,108.47Z"/><path class="cls-14" d="M282.44,102.69l.33-1.45h3.47l-2,9.42a7.61,7.61,0,0,0-.18,1.18.68.68,0,0,0,.15.47.48.48,0,0,0,.36.17,3.3,3.3,0,0,0,1.83-.92,8.07,8.07,0,0,0,2-2.53,7.33,7.33,0,0,0,.83-3.48,7.57,7.57,0,0,0-.59-3,6.94,6.94,0,0,0-1.73-2.42,8.1,8.1,0,0,0-2.79-1.6,11.35,11.35,0,0,0-3.77-.58,13.17,13.17,0,0,0-3.92.56,9.7,9.7,0,0,0-3.14,1.6,8.91,8.91,0,0,0-2.26,2.58,10.93,10.93,0,0,0-1.23,3,13.25,13.25,0,0,0-.42,3.32,9.37,9.37,0,0,0,.9,4.13,8.27,8.27,0,0,0,2.62,3.14,10.56,10.56,0,0,0,4.14,1.8,17.22,17.22,0,0,0,5.49.22,13,13,0,0,0,4.12-1.1,8.17,8.17,0,0,0,2.86-2.29h2.8a9.46,9.46,0,0,1-1.78,2.51,10.07,10.07,0,0,1-2.57,1.86,13.36,13.36,0,0,1-3.3,1.15,19.05,19.05,0,0,1-4,.39,18.85,18.85,0,0,1-5.82-.84,11.89,11.89,0,0,1-4.35-2.45,10.35,10.35,0,0,1-2.68-3.81,12.83,12.83,0,0,1-.9-4.89,14.5,14.5,0,0,1,.93-5.23,12.14,12.14,0,0,1,2.69-4.22,12.26,12.26,0,0,1,4.28-2.81,15,15,0,0,1,5.57-1,13.67,13.67,0,0,1,4.58.73,10.22,10.22,0,0,1,3.57,2.1,9.15,9.15,0,0,1,2.27,3.23,10.68,10.68,0,0,1,.78,4.14,9.74,9.74,0,0,1-.63,3.44,9.85,9.85,0,0,1-1.81,3,8.71,8.71,0,0,1-2.77,2.13,7.66,7.66,0,0,1-3.42.78,3.2,3.2,0,0,1-1.66-.36,1.81,1.81,0,0,1-.79-1.15,5,5,0,0,1-2.62,1.42,4.89,4.89,0,0,1-2.88-.27,4.72,4.72,0,0,1-2.25-1.93,6,6,0,0,1-.86-3.33,9.91,9.91,0,0,1,.88-4.06,8.23,8.23,0,0,1,2.53-3.27,5.83,5.83,0,0,1,3.69-1.28A3.79,3.79,0,0,1,282.44,102.69Zm-7.19,6.81a3.85,3.85,0,0,0,.66,2.42,2.08,2.08,0,0,0,1.72.84,2.92,2.92,0,0,0,2.18-1,6.38,6.38,0,0,0,1.42-2.49,9.25,9.25,0,0,0,.49-2.91,4.39,4.39,0,0,0-.17-1.25,3.09,3.09,0,0,0-.48-1,2.27,2.27,0,0,0-.78-.64,2.4,2.4,0,0,0-1-.21,2.92,2.92,0,0,0-2.08.9,6,6,0,0,0-1.43,2.33A9.09,9.09,0,0,0,275.25,109.5Z"/><path class="cls-18" d="M417.88,94a22.12,22.12,0,1,1-22.13,22.12A22.12,22.12,0,0,1,417.88,94Z"/><path class="cls-16" d="M407.29,111.67a3.8,3.8,0,1,1-3.79,3.79A3.79,3.79,0,0,1,407.29,111.67Z"/><path class="cls-16" d="M407.29,111.67a3.8,3.8,0,1,1-3.79,3.79A3.79,3.79,0,0,1,407.29,111.67Z"/><path class="cls-16" d="M417.83,111.67a3.8,3.8,0,1,1-3.8,3.79A3.79,3.79,0,0,1,417.83,111.67Z"/><path class="cls-16" d="M428.27,111.67a3.8,3.8,0,1,1-3.79,3.79A3.8,3.8,0,0,1,428.27,111.67Z"/><path id="color-4" data-name="color" class="cls-19" d="M344.24,107.34A23.35,23.35,0,1,1,320.89,84,23.36,23.36,0,0,1,344.24,107.34Z"/><polygon class="cls-14" points="320.62 92.34 315.26 101.61 306.34 101.61 313.98 110.12 311.13 120.88 320.62 114.86 330 120.88 327.26 110.12 334.91 101.61 325.98 101.61 320.62 92.34"/><path id="color-5" data-name="color" class="cls-15" d="M297,107.35a12.49,12.49,0,1,1-12.49,12.48A12.48,12.48,0,0,1,297,107.35Z"/><path class="cls-14" d="M299.9,118.6l-.46,2.25h2.5v2h-2.87l-.75,3.93h-2.13l.76-3.93h-1.88l-.73,3.93h-2.09l.72-3.93h-2.3v-2h2.68l.45-2.25h-2.43v-2h2.79l.75-3.94H297l-.75,3.94h1.92l.75-3.94H301l-.75,3.94h2.32v2Zm-4.45,2.25h1.89l.46-2.25h-1.9Z"/><path id="color-6" data-name="color" class="cls-17" d="M343.72,231.53a24.72,24.72,0,1,1,24.71-24.71A24.72,24.72,0,0,1,343.72,231.53Z"/><polygon class="cls-14" points="343.03 192.38 337.68 201.65 328.75 201.65 336.39 210.16 333.55 220.93 343.03 214.91 352.41 220.93 349.68 210.16 357.32 201.65 348.39 201.65 343.03 192.38"/><path id="color-7" data-name="color" class="cls-19" d="M417.33,109.28a15.86,15.86,0,1,1,15.86-15.86A15.86,15.86,0,0,1,417.33,109.28Z"/><path class="cls-16" d="M407.74,92.26,416,85.85h1.26V90.6s8.32-.47,8.95,4.75a7.64,7.64,0,0,1-.63,3.56h-1.19c-1.16-3.07-.76-4.82-7.13-4.75v5.94h-1.18l-8.32-6.77Z"/><path id="color-8" data-name="color" class="cls-19" d="M309.17,187.82A22.12,22.12,0,1,1,287,209.94,22.12,22.12,0,0,1,309.17,187.82Z"/><path class="cls-14" d="M323.25,209.69c-1.54-1.28-11-10-12.9-11.81a2.24,2.24,0,0,0-.32-.41,1,1,0,0,0-1.65,0c-.82.83-11.56,10.77-13.21,12.15a1.5,1.5,0,0,0,0,2.21,1.66,1.66,0,0,0,2.2,0l.55-.55s.55-.83.83.55c.21,1.09,2.48,9.39,2.75,10.5s1.65,1.1,2.2,1.1h11c.55,0,1.93,0,2.2-1.1s2.53-9.36,2.75-10.44c.27-1.37.82-.55.82-.55l.55.55a1.66,1.66,0,0,0,2.2,0A1.48,1.48,0,0,0,323.25,209.69Zm-14,9.09a1.65,1.65,0,1,1,1.66-1.65A1.65,1.65,0,0,1,309.23,218.78Zm0-6.34a3.16,3.16,0,1,1,3.29-3.16A3.23,3.23,0,0,1,309.24,212.44Z"/><path id="color-9" data-name="color" class="cls-19" d="M367.78,117.54A24.18,24.18,0,1,1,392,93.37,24.18,24.18,0,0,1,367.78,117.54Z"/><path class="cls-14" d="M381.81,92.85c-1.53-1.29-11-10-12.9-11.82a2.59,2.59,0,0,0-.31-.41,1,1,0,0,0-1.65,0c-.83.83-11.56,10.77-13.21,12.15a1.5,1.5,0,0,0,0,2.21,1.65,1.65,0,0,0,2.2,0l.55-.55s.55-.83.83.55c.21,1.09,2.47,9.39,2.75,10.5s1.65,1.1,2.2,1.1h11c.55,0,1.92,0,2.2-1.1s2.53-9.36,2.74-10.43c.28-1.38.83-.55.83-.55l.55.55a1.66,1.66,0,0,0,2.19,0A1.48,1.48,0,0,0,381.81,92.85Zm-14,9.08a1.65,1.65,0,1,1,1.65-1.65A1.65,1.65,0,0,1,367.8,101.93Zm0-6.33a3.16,3.16,0,1,1,3.29-3.16A3.23,3.23,0,0,1,367.81,95.6Z"/><path id="color-10" data-name="color" class="cls-17" d="M410.58,170.35a24.71,24.71,0,1,1,24.71-24.71A24.71,24.71,0,0,1,410.58,170.35Z"/><path class="cls-14" d="M396.55,157.91a2.78,2.78,0,0,0,3.92,0l5.12-5.12a12,12,0,1,0-3.77-4.08L396.55,154A2.76,2.76,0,0,0,396.55,157.91Zm15.74-6.78a8.32,8.32,0,1,1,8.32-8.32A8.33,8.33,0,0,1,412.29,151.13Z"/><path class="cls-15" d="M282.69,224.42A12.29,12.29,0,1,1,295,212.13,12.29,12.29,0,0,1,282.69,224.42Z"/><path class="cls-16" d="M288.4,211.38a5.08,5.08,0,0,0,.15-1.18,4.69,4.69,0,0,0-1.83-3.71,1.39,1.39,0,0,0,.1-.5,1.32,1.32,0,0,0-1.32-1.33,1.34,1.34,0,0,0-1.25.87l-.39,0a4.67,4.67,0,0,0-4.36,3c-.84,1.44-1.14,3-2.35,4-.94.78-1.41,1.56-.47,2,.75.38,8.11,3.12,9.36,3.59s1.71,0,1.57-1.4a16.62,16.62,0,0,1,.78-5.31A.22.22,0,0,1,288.4,211.38Z"/><path class="cls-16" d="M281.16,217.94a2.11,2.11,0,0,0,3.85,1.19c-1.66-.65-2.44-1-3.84-1.42C281.17,217.79,281.16,217.86,281.16,217.94Z"/><path class="cls-13" d="M272.15,186.58a17.21,17.21,0,1,0,17.21-17.21A17.21,17.21,0,0,0,272.15,186.58Z"/><g id="Date_icon" data-name="Date icon"><path class="cls-16" d="M289.1,176.49a9.89,9.89,0,1,0,9.89,9.89A9.89,9.89,0,0,0,289.1,176.49Zm0,17.67a7.77,7.77,0,1,1,7.84-7.77A8.06,8.06,0,0,1,289.1,194.16Z"/><path class="cls-16" d="M292.31,185.69h-2.52v-3.91a1,1,0,0,0-1-1h0a1,1,0,0,0-1,1v5a1,1,0,0,0,1,1h3.6a1,1,0,0,0,1-1v-.05A1,1,0,0,0,292.31,185.69Z"/></g><path class="cls-18" d="M365.67,42.19A17.21,17.21,0,1,1,348.46,59.4,17.21,17.21,0,0,1,365.67,42.19Z"/><path class="cls-14" d="M373.41,55.57c0,.18,0,.35,0,.53a11.55,11.55,0,0,1-17.77,9.72,7.77,7.77,0,0,0,1,.06,8.14,8.14,0,0,0,5-1.74,4.05,4.05,0,0,1-3.79-2.82,3.84,3.84,0,0,0,.76.07,3.79,3.79,0,0,0,1.07-.14,4.06,4.06,0,0,1-3.26-4v-.05a4,4,0,0,0,1.84.51A4.07,4.07,0,0,1,357,52.31a11.5,11.5,0,0,0,8.36,4.24,4,4,0,0,1-.1-.92,4.06,4.06,0,0,1,7-2.78,8.15,8.15,0,0,0,2.57-1,4,4,0,0,1-1.78,2.24,8,8,0,0,0,2.33-.64A8.07,8.07,0,0,1,373.41,55.57Z"/><circle class="cls-13" cx="292.67" cy="221.47" r="7.69" transform="translate(-2.92 3.92) rotate(-0.76)"/><path class="cls-14" d="M293.68,219.77l.11-.51H295l-.7,3.29a3,3,0,0,0-.06.41.29.29,0,0,0,.05.17.18.18,0,0,0,.13.06,1.14,1.14,0,0,0,.64-.33,2.61,2.61,0,0,0,.68-.88,2.49,2.49,0,0,0,.29-1.21,2.75,2.75,0,0,0-.2-1,2.46,2.46,0,0,0-.61-.85,2.86,2.86,0,0,0-1-.55,3.89,3.89,0,0,0-1.32-.21,4.58,4.58,0,0,0-1.37.2,3.57,3.57,0,0,0-1.1.56,3.13,3.13,0,0,0-.79.9,4.19,4.19,0,0,0-.42,1,4.5,4.5,0,0,0-.15,1.16,3.44,3.44,0,0,0,.31,1.44,3,3,0,0,0,.92,1.1,3.92,3.92,0,0,0,1.45.63,6.25,6.25,0,0,0,1.91.07,4.86,4.86,0,0,0,1.44-.38,2.79,2.79,0,0,0,1-.8h1a3.17,3.17,0,0,1-.63.87,3.24,3.24,0,0,1-.89.65,4.59,4.59,0,0,1-1.15.4,6.12,6.12,0,0,1-1.39.14,6.48,6.48,0,0,1-2-.3,4.09,4.09,0,0,1-1.52-.85,3.56,3.56,0,0,1-.93-1.33,4.45,4.45,0,0,1-.32-1.71,5,5,0,0,1,.33-1.82,4.21,4.21,0,0,1,2.43-2.46,5.33,5.33,0,0,1,1.95-.35,4.8,4.8,0,0,1,1.6.25,3.5,3.5,0,0,1,1.24.74,3.14,3.14,0,0,1,.8,1.13,3.7,3.7,0,0,1,.27,1.44,3.31,3.31,0,0,1-.22,1.2,3.43,3.43,0,0,1-.63,1.06,3.05,3.05,0,0,1-1,.75,2.69,2.69,0,0,1-1.19.27,1,1,0,0,1-.58-.13.6.6,0,0,1-.28-.4,1.71,1.71,0,0,1-.92.5,1.72,1.72,0,0,1-1.79-.77,2.11,2.11,0,0,1-.3-1.16,3.4,3.4,0,0,1,.31-1.42,2.87,2.87,0,0,1,.88-1.14,2,2,0,0,1,1.3-.45A1.33,1.33,0,0,1,293.68,219.77Zm-2.51,2.38a1.29,1.29,0,0,0,.23.84.7.7,0,0,0,.6.29,1,1,0,0,0,.76-.34,2.3,2.3,0,0,0,.49-.87,3.4,3.4,0,0,0,.17-1,1.44,1.44,0,0,0-.06-.43,1,1,0,0,0-.16-.35.93.93,0,0,0-.27-.22.86.86,0,0,0-.36-.07,1,1,0,0,0-.73.31,2,2,0,0,0-.5.82A3,3,0,0,0,291.17,222.15Z"/><path class="cls-8" d="M270.86,231.1a7.38,7.38,0,1,1,7.38-7.37A7.37,7.37,0,0,1,270.86,231.1Z"/><g class="cls-20"><path class="cls-21" d="M263.64,235.36a4.92,4.92,0,1,1,4.92-4.91A4.91,4.91,0,0,1,263.64,235.36Z"/></g><g class="cls-22"><path class="cls-17" d="M258.54,238.25a3.4,3.4,0,1,1,3.39-3.4A3.4,3.4,0,0,1,258.54,238.25Z"/></g><path class="cls-15" d="M393.29,163.36a20.9,20.9,0,1,1-20.89,20.9A20.89,20.89,0,0,1,393.29,163.36Z"/><polygon class="cls-14" points="385.97 177.06 380.18 183.35 384.73 183.35 384.73 192.15 395.84 192.15 393.37 188.38 388.43 188.38 388.43 183.35 392.99 183.35 387.2 177.06 385.97 177.06"/><polygon class="cls-14" points="390.9 177.06 393.37 180.83 398.31 180.83 398.31 185.86 393.76 185.86 399.54 192.15 400.77 192.15 406.56 185.86 402 185.86 402 177.06 390.9 177.06"/><path class="cls-4" d="M278.49,120.15a19.67,19.67,0,1,1-19.66,19.66A19.67,19.67,0,0,1,278.49,120.15Z"/><polygon class="cls-14" points="278.43 128.43 274.3 135.56 267.44 135.56 273.31 142.1 271.13 150.39 278.43 145.75 285.63 150.39 283.53 142.1 289.41 135.56 282.54 135.56 278.43 128.43"/><path class="cls-13" d="M370,114.15a29.5,29.5,0,1,1-29.5,29.5A29.49,29.49,0,0,1,370,114.15Z"/><path class="cls-16" d="M358.21,137.9a4.38,4.38,0,1,1-4.38,4.37A4.37,4.37,0,0,1,358.21,137.9Z"/><path class="cls-16" d="M358.21,137.9a4.38,4.38,0,1,1-4.38,4.37A4.37,4.37,0,0,1,358.21,137.9Z"/><path class="cls-16" d="M370.37,137.9a4.38,4.38,0,1,1-4.38,4.37A4.36,4.36,0,0,1,370.37,137.9Z"/><path class="cls-16" d="M382.42,137.9a4.38,4.38,0,1,1-4.38,4.37A4.37,4.37,0,0,1,382.42,137.9Z"/><path class="cls-23" d="M347.44,126.71A13.52,13.52,0,1,1,361,113.19,13.52,13.52,0,0,1,347.44,126.71Z"/><path class="cls-14" d="M347.77,105.36c-2.11,0-5.29,1-5.29,4.81,0,1.92,4.23,8.65,5.29,10.58,1.06-1.93,5.29-8.66,5.29-10.58C353.06,106.32,349.89,105.36,347.77,105.36Zm0,7.89a3.08,3.08,0,1,1,3.08-3.08A3.07,3.07,0,0,1,347.77,113.25Z"/><path class="cls-23" d="M414.6,183.65a13.52,13.52,0,1,1,13.52-13.52A13.52,13.52,0,0,1,414.6,183.65Z"/><path class="cls-14" d="M408.71,165.77v5.72a.74.74,0,1,1-1.47,0v-5.87a1.55,1.55,0,0,1,1.47-1.46h3.67a.73.73,0,1,1,0,1.46h-3.53l-.12,0A.59.59,0,0,0,408.71,165.77Z"/><path class="cls-14" d="M421.76,175.31a1.33,1.33,0,0,1-1.46,1.32h-5.72a.74.74,0,1,1,0-1.47h5.7a.78.78,0,0,0,0-.14v-2.78a.73.73,0,1,1,1.46,0Z"/><path class="cls-14" d="M422.5,162.54a6.48,6.48,0,0,1-1,1.32,15.2,15.2,0,0,1-2.35,1.76c.3.15,1,.3,2.5-.58a3.38,3.38,0,0,1-1.32,2.05c-1.18.88-2.2.44-3.23,1.76.44.15.88.15,2.35-.44A2.87,2.87,0,0,1,418.1,170c-1,.73-2.07.51-3.67,1.32-2.05,1-4.25,4.84-4.69,5.72-.62,1.23-1,1.17-.89.14s.59-2.05,1.91-4.4a30.89,30.89,0,0,1,5.72-7.48,15.28,15.28,0,0,1,5.58-3.23C422.67,161.87,422.74,162.07,422.5,162.54Z"/><path class="cls-13" d="M373.44,185.75A17.21,17.21,0,1,1,356.23,203,17.2,17.2,0,0,1,373.44,185.75Z"/><path class="cls-14" d="M374.69,203.79a1.23,1.23,0,0,1-1.5,0L365,197.15a.2.2,0,0,0,0,.07V206a1.76,1.76,0,0,0,0,.33v4.57a1.31,1.31,0,0,0,1.06,1.4.9.9,0,0,0,.53-.17c.27-.28,3.44-3.28,4.53-4.37h9.67a1.76,1.76,0,0,0,1.76-1.76v-8.67Z"/><path class="cls-14" d="M374.56,201.24c.3-.31,4.54-3.81,6.83-5.68a1.62,1.62,0,0,0-.54-.1H366.79a2,2,0,0,0-.36,0c2.26,1.86,6.58,5.42,6.9,5.74A.85.85,0,0,0,374.56,201.24Z"/><path id="color-11" data-name="color" class="cls-17" d="M342.64,102.21A11.33,11.33,0,1,1,354,90.88,11.33,11.33,0,0,1,342.64,102.21Z"/><path class="cls-14" d="M348.19,88.52v.35a7.69,7.69,0,0,1-11.84,6.48c.21,0,.43,0,.65,0a5.43,5.43,0,0,0,3.36-1.16,2.69,2.69,0,0,1-2.53-1.88,2.76,2.76,0,0,0,.51.05,2.82,2.82,0,0,0,.71-.09,2.71,2.71,0,0,1-2.17-2.66v0a2.78,2.78,0,0,0,1.23.34,2.69,2.69,0,0,1-.84-3.61,7.68,7.68,0,0,0,5.57,2.82,3.08,3.08,0,0,1-.07-.61,2.71,2.71,0,0,1,2.71-2.71,2.74,2.74,0,0,1,2,.85,5.36,5.36,0,0,0,1.71-.65A2.67,2.67,0,0,1,348,87.54a5.15,5.15,0,0,0,1.56-.42A5.62,5.62,0,0,1,348.19,88.52Z"/><path class="cls-15" d="M394.17,131.55A17.59,17.59,0,1,1,411.75,114,17.58,17.58,0,0,1,394.17,131.55Z"/><path class="cls-14" d="M398.78,112l-.65,3.22h3.58V118h-4.12l-1.06,5.62h-3l1.08-5.62h-2.69l-1.05,5.62h-3l1-5.62h-3.29v-2.85h3.83l.65-3.22h-3.49v-2.89h4l1.07-5.63h3l-1.06,5.63h2.74l1.08-5.63h3l-1.08,5.63h3.33V112Zm-6.36,3.22h2.71l.65-3.22h-2.71Z"/><path class="cls-19" d="M280,180.59a14.75,14.75,0,1,1,14.74-14.75A14.75,14.75,0,0,1,280,180.59Z"/><path class="cls-16" d="M272.66,162.92a2.63,2.63,0,1,1-2.63,2.63A2.62,2.62,0,0,1,272.66,162.92Z"/><path class="cls-16" d="M272.66,162.92a2.63,2.63,0,1,1-2.63,2.63A2.62,2.62,0,0,1,272.66,162.92Z"/><path class="cls-16" d="M280,162.92a2.63,2.63,0,1,1-2.62,2.63A2.63,2.63,0,0,1,280,162.92Z"/><path class="cls-16" d="M287.18,162.92a2.63,2.63,0,1,1-2.62,2.63A2.63,2.63,0,0,1,287.18,162.92Z"/><path class="cls-18" d="M295,171.77a13.6,13.6,0,1,1,13.59-13.6A13.6,13.6,0,0,1,295,171.77Z"/><path class="cls-14" d="M296.94,154.35l.22-1h2.33l-1.34,6.34a4.49,4.49,0,0,0-.13.8.48.48,0,0,0,.11.32.32.32,0,0,0,.24.11,2.2,2.2,0,0,0,1.23-.62,5.28,5.28,0,0,0,1.32-1.7,5.21,5.21,0,0,0,.16-4.35,4.81,4.81,0,0,0-1.16-1.63,5.49,5.49,0,0,0-1.88-1.08,7.7,7.7,0,0,0-2.54-.39,8.82,8.82,0,0,0-2.64.38,6.63,6.63,0,0,0-2.12,1.08,6.23,6.23,0,0,0-1.52,1.74,7.57,7.57,0,0,0-.82,2,8.81,8.81,0,0,0-.28,2.24,6.39,6.39,0,0,0,.6,2.78,5.59,5.59,0,0,0,1.76,2.11,7.09,7.09,0,0,0,2.79,1.21,11.73,11.73,0,0,0,3.7.15,8.86,8.86,0,0,0,2.77-.74,5.56,5.56,0,0,0,1.93-1.54h1.88a6.23,6.23,0,0,1-1.19,1.69,7,7,0,0,1-1.74,1.25,8.73,8.73,0,0,1-2.21.77,13.67,13.67,0,0,1-6.61-.3,8.05,8.05,0,0,1-2.93-1.65,7,7,0,0,1-1.8-2.56,8.62,8.62,0,0,1-.61-3.3,9.69,9.69,0,0,1,.63-3.52,8.12,8.12,0,0,1,4.69-4.73,9.94,9.94,0,0,1,3.76-.68,9.17,9.17,0,0,1,3.08.49,6.6,6.6,0,0,1,2.4,1.41,6.07,6.07,0,0,1,1.53,2.18,7.17,7.17,0,0,1,.53,2.78,6.75,6.75,0,0,1-1.65,4.37,5.79,5.79,0,0,1-1.86,1.43,5.16,5.16,0,0,1-2.31.53,2.05,2.05,0,0,1-1.11-.25,1.18,1.18,0,0,1-.53-.77,3.45,3.45,0,0,1-1.77,1,3.3,3.3,0,0,1-1.94-.19,3.21,3.21,0,0,1-1.52-1.29,4.18,4.18,0,0,1-.58-2.25,6.6,6.6,0,0,1,.6-2.73,5.66,5.66,0,0,1,1.7-2.21,3.93,3.93,0,0,1,2.49-.85A2.55,2.55,0,0,1,296.94,154.35Zm-4.84,4.58a2.57,2.57,0,0,0,.44,1.63,1.39,1.39,0,0,0,1.16.57,1.94,1.94,0,0,0,1.46-.67,4.34,4.34,0,0,0,1-1.67,6.34,6.34,0,0,0,.33-2,3.13,3.13,0,0,0-.11-.85,2,2,0,0,0-.33-.66,1.43,1.43,0,0,0-.52-.43,1.71,1.71,0,0,0-.7-.14,2,2,0,0,0-1.4.6,4.14,4.14,0,0,0-1,1.58A6.12,6.12,0,0,0,292.1,158.93Z"/><path class="cls-17" d="M320.83,139.36a14.75,14.75,0,1,1-14.75-14.75A14.74,14.74,0,0,1,320.83,139.36Z"/><path class="cls-14" d="M307.2,137.09a3,3,0,1,0,3,3A3,3,0,0,0,307.2,137.09Z"/><path class="cls-14" d="M312.87,134h-8.35a1.25,1.25,0,0,0-1.2-1.19h-2.38a1.25,1.25,0,0,0-1.2,1.19h-1.19a1.19,1.19,0,0,0-1.19,1.19v9.55a1.19,1.19,0,0,0,1.19,1.19h14.32a1.2,1.2,0,0,0,1.19-1.19v-9.55A1.2,1.2,0,0,0,312.87,134Zm-12.66,4a.87.87,0,1,1,.87-.87A.87.87,0,0,1,300.21,138.05Zm7,6.6a4.56,4.56,0,1,1,4.55-4.56A4.56,4.56,0,0,1,307.2,144.65Z"/><path class="cls-18" d="M332.7,116.1a18.13,18.13,0,1,1-18.12,18.12A18.13,18.13,0,0,1,332.7,116.1Z"/><path class="cls-16" d="M340.67,133a6.65,6.65,0,0,0-2.39-7,1.92,1.92,0,0,0,.14-.72,1.9,1.9,0,0,0-1.89-1.9,1.87,1.87,0,0,0-1.77,1.25,5.25,5.25,0,0,0-.56,0A6.68,6.68,0,0,0,328,128.9c-1.2,2.07-1.62,4.32-3.36,5.77-1.34,1.12-2,2.24-.67,2.9,1.07.54,11.6,4.47,13.38,5.13s2.43,0,2.23-2c-.22-2.23.45-4.91,1.12-7.59A.37.37,0,0,0,340.67,133Z"/><path class="cls-16" d="M330.34,142.37a3,3,0,0,0,5.49,1.7c-2.37-.92-3.48-1.37-5.48-2C330.35,142.15,330.34,142.26,330.34,142.37Z"/><path class="cls-19" d="M361.59,192.49a14.75,14.75,0,1,1,14.75-14.75A14.76,14.76,0,0,1,361.59,192.49Z"/><path class="cls-14" d="M363.21,174.53l.2-.92h2.17l-1.25,5.89a5.37,5.37,0,0,0-.11.74.47.47,0,0,0,.09.3.3.3,0,0,0,.23.1,2,2,0,0,0,1.14-.58,5,5,0,0,0,1.23-1.57,4.74,4.74,0,0,0,.52-2.18,4.65,4.65,0,0,0-.38-1.86,4.34,4.34,0,0,0-1.07-1.51,5,5,0,0,0-1.75-1,7.16,7.16,0,0,0-2.35-.36,8,8,0,0,0-2.46.35,6.05,6.05,0,0,0-2,1,5.63,5.63,0,0,0-1.41,1.61,6.67,6.67,0,0,0-.76,1.86,8.06,8.06,0,0,0-.27,2.07,5.82,5.82,0,0,0,.57,2.59,5.13,5.13,0,0,0,1.63,2,6.64,6.64,0,0,0,2.59,1.12,10.94,10.94,0,0,0,3.43.14,8.08,8.08,0,0,0,2.57-.69,5.09,5.09,0,0,0,1.79-1.43h1.75a6,6,0,0,1-1.11,1.57,6.31,6.31,0,0,1-1.61,1.16,8.76,8.76,0,0,1-2.06.72,12.07,12.07,0,0,1-2.49.25,11.74,11.74,0,0,1-3.63-.53,7.7,7.7,0,0,1-2.73-1.53,6.49,6.49,0,0,1-1.66-2.38,7.94,7.94,0,0,1-.57-3.06,9,9,0,0,1,.58-3.27,7.49,7.49,0,0,1,4.36-4.39,9.29,9.29,0,0,1,3.48-.63,8.67,8.67,0,0,1,2.86.45,6.42,6.42,0,0,1,2.23,1.31,5.78,5.78,0,0,1,1.42,2,6.74,6.74,0,0,1,.49,2.58,6.15,6.15,0,0,1-.4,2.15,6,6,0,0,1-1.13,1.9,5.49,5.49,0,0,1-1.73,1.33,4.7,4.7,0,0,1-2.14.49,2,2,0,0,1-1-.23,1.09,1.09,0,0,1-.49-.72,3.29,3.29,0,0,1-1.65.9,3.08,3.08,0,0,1-1.8-.18,3,3,0,0,1-1.4-1.2,3.8,3.8,0,0,1-.54-2.09,6.18,6.18,0,0,1,.55-2.53,5.29,5.29,0,0,1,1.58-2,3.65,3.65,0,0,1,2.31-.79A2.37,2.37,0,0,1,363.21,174.53Zm-4.49,4.25a2.38,2.38,0,0,0,.41,1.51,1.29,1.29,0,0,0,1.07.52,1.81,1.81,0,0,0,1.36-.61,4,4,0,0,0,.89-1.56,5.66,5.66,0,0,0,.31-1.82,2.67,2.67,0,0,0-.11-.78,1.74,1.74,0,0,0-.3-.61,1.23,1.23,0,0,0-.48-.4,1.51,1.51,0,0,0-.65-.13,1.81,1.81,0,0,0-1.3.56,3.61,3.61,0,0,0-.89,1.46A5.59,5.59,0,0,0,358.72,178.78Z"/><path id="color-12" data-name="color" class="cls-17" d="M383.48,77.62a11.33,11.33,0,1,0-11.33-11.33A11.33,11.33,0,0,0,383.48,77.62Z"/><path class="cls-14" d="M390.2,65.5c-.71-.6-5.13-4.68-6-5.52a1.33,1.33,0,0,0-.14-.19.48.48,0,0,0-.77,0c-.39.39-5.4,5-6.17,5.67a.69.69,0,0,0,0,1,.78.78,0,0,0,1,0l.25-.26s.26-.38.39.26,1.15,4.39,1.28,4.9.77.52,1,.52h5.15c.26,0,.9,0,1-.52s1.19-4.36,1.28-4.87.39-.25.39-.25l.26.25a.76.76,0,0,0,1,0A.68.68,0,0,0,390.2,65.5Zm-6.54,4.24a.78.78,0,1,1,.77-.77A.78.78,0,0,1,383.66,69.74Zm0-3a1.48,1.48,0,1,1,1.53-1.48A1.51,1.51,0,0,1,383.67,66.78Z"/><path class="cls-24" d="M325.6,200.35a27.19,27.19,0,1,1,27.19-27.19A27.19,27.19,0,0,1,325.6,200.35Z"/></g><path class="cls-16" d="M324.79,162.53v5.3s-15.6-.88-16.76,8.91a14.26,14.26,0,0,0,.75,5.59,1.6,1.6,0,0,0,1.52,1.08h0a1.63,1.63,0,0,0,1.53-1.09c1.72-5.08,1.81-7.94,13-7.81v7.41a1.92,1.92,0,0,0,3,1.57l14.24-10.1a1.87,1.87,0,0,0,0-2.92l-14.25-9.54A1.92,1.92,0,0,0,324.79,162.53Z"/></g></g></svg>